<svg xmlns="http://www.w3.org/2000/svg" viewBox="0 0 122 197">
<rect x="47" y="0" width="7" height="1" fill="rgb(189,87,38)"/>
<rect x="47" y="1" width="7" height="1" fill="rgb(189,87,38)"/>
<rect x="47" y="2" width="7" height="1" fill="rgb(189,87,38)"/>
<rect x="47" y="3" width="7" height="1" fill="rgb(189,87,38)"/>
<rect x="47" y="4" width="7" height="1" fill="rgb(189,87,38)"/>
<rect x="47" y="5" width="7" height="1" fill="rgb(189,87,38)"/>
<rect x="47" y="6" width="7" height="1" fill="rgb(189,87,38)"/>
<rect x="47" y="7" width="7" height="1" fill="rgb(189,87,38)"/>
<rect x="47" y="8" width="7" height="1" fill="rgb(189,87,38)"/>
<rect x="47" y="9" width="7" height="1" fill="rgb(189,87,38)"/>
<rect x="47" y="10" width="7" height="1" fill="rgb(189,87,38)"/>
<rect x="47" y="11" width="7" height="1" fill="rgb(189,87,38)"/>
<rect x="47" y="12" width="7" height="1" fill="rgb(189,87,38)"/>
<rect x="47" y="13" width="7" height="1" fill="rgb(189,87,38)"/>
<rect x="34" y="14" width="27" height="1" fill="rgb(189,87,38)"/>
<rect x="34" y="15" width="27" height="1" fill="rgb(189,87,38)"/>
<rect x="34" y="16" width="27" height="1" fill="rgb(189,87,38)"/>
<rect x="34" y="17" width="27" height="1" fill="rgb(189,87,38)"/>
<rect x="34" y="18" width="27" height="1" fill="rgb(189,87,38)"/>
<rect x="34" y="19" width="27" height="1" fill="rgb(189,87,38)"/>
<rect x="34" y="20" width="27" height="1" fill="rgb(189,87,38)"/>
<rect x="54" y="21" width="7" height="1" fill="rgb(189,87,38)"/>
<rect x="54" y="22" width="7" height="1" fill="rgb(189,87,38)"/>
<rect x="54" y="23" width="7" height="1" fill="rgb(189,87,38)"/>
<rect x="54" y="24" width="7" height="1" fill="rgb(189,87,38)"/>
<rect x="54" y="25" width="7" height="1" fill="rgb(189,87,38)"/>
<rect x="54" y="26" width="7" height="1" fill="rgb(189,87,38)"/>
<rect x="54" y="27" width="7" height="1" fill="rgb(189,87,38)"/>
<rect x="54" y="28" width="7" height="1" fill="rgb(189,87,38)"/>
<rect x="54" y="29" width="7" height="1" fill="rgb(189,87,38)"/>
<rect x="54" y="30" width="7" height="1" fill="rgb(189,87,38)"/>
<rect x="54" y="31" width="7" height="1" fill="rgb(189,87,38)"/>
<rect x="54" y="32" width="7" height="1" fill="rgb(189,87,38)"/>
<rect x="54" y="33" width="7" height="1" fill="rgb(189,87,38)"/>
<rect x="34" y="34" width="47" height="1" fill="rgb(189,87,38)"/>
<rect x="34" y="35" width="47" height="1" fill="rgb(189,87,38)"/>
<rect x="34" y="36" width="47" height="1" fill="rgb(189,87,38)"/>
<rect x="34" y="37" width="47" height="1" fill="rgb(189,87,38)"/>
<rect x="34" y="38" width="47" height="1" fill="rgb(189,87,38)"/>
<rect x="34" y="39" width="47" height="1" fill="rgb(189,87,38)"/>
<rect x="34" y="40" width="47" height="1" fill="rgb(189,87,38)"/>
<rect x="20" y="41" width="47" height="1" fill="rgb(189,87,38)"/>
<rect x="20" y="42" width="47" height="1" fill="rgb(189,87,38)"/>
<rect x="20" y="43" width="47" height="1" fill="rgb(189,87,38)"/>
<rect x="20" y="44" width="47" height="1" fill="rgb(189,87,38)"/>
<rect x="20" y="45" width="47" height="1" fill="rgb(189,87,38)"/>
<rect x="20" y="46" width="47" height="1" fill="rgb(189,87,38)"/>
<rect x="20" y="47" width="47" height="1" fill="rgb(189,87,38)"/>
<rect x="20" y="48" width="41" height="1" fill="rgb(189,87,38)"/>
<rect x="20" y="49" width="41" height="1" fill="rgb(189,87,38)"/>
<rect x="20" y="50" width="41" height="1" fill="rgb(189,87,38)"/>
<rect x="20" y="51" width="41" height="1" fill="rgb(189,87,38)"/>
<rect x="20" y="52" width="41" height="1" fill="rgb(189,87,38)"/>
<rect x="20" y="53" width="41" height="1" fill="rgb(189,87,38)"/>
<rect x="47" y="54" width="14" height="1" fill="rgb(189,87,38)"/>
<rect x="47" y="55" width="14" height="1" fill="rgb(189,87,38)"/>
<rect x="47" y="56" width="14" height="1" fill="rgb(189,87,38)"/>
<rect x="47" y="57" width="14" height="1" fill="rgb(189,87,38)"/>
<rect x="47" y="58" width="14" height="1" fill="rgb(189,87,38)"/>
<rect x="47" y="59" width="14" height="1" fill="rgb(189,87,38)"/>
<rect x="47" y="60" width="14" height="1" fill="rgb(189,87,38)"/>
<rect x="47" y="61" width="20" height="1" fill="rgb(189,87,38)"/>
<rect x="47" y="62" width="20" height="1" fill="rgb(189,87,38)"/>
<rect x="47" y="63" width="20" height="1" fill="rgb(189,87,38)"/>
<rect x="47" y="64" width="20" height="1" fill="rgb(189,87,38)"/>
<rect x="47" y="65" width="20" height="1" fill="rgb(189,87,38)"/>
<rect x="47" y="66" width="20" height="1" fill="rgb(189,87,38)"/>
<rect x="47" y="67" width="20" height="1" fill="rgb(189,87,38)"/>
<rect x="47" y="68" width="7" height="1" fill="rgb(189,87,38)"/>
<rect x="54" y="68" width="7" height="1" fill="rgb(255,255,255)"/>
<rect x="61" y="68" width="13" height="1" fill="rgb(189,87,38)"/>
<rect x="47" y="69" width="7" height="1" fill="rgb(189,87,38)"/>
<rect x="54" y="69" width="7" height="1" fill="rgb(255,255,255)"/>
<rect x="61" y="69" width="13" height="1" fill="rgb(189,87,38)"/>
<rect x="47" y="70" width="7" height="1" fill="rgb(189,87,38)"/>
<rect x="54" y="70" width="7" height="1" fill="rgb(255,255,255)"/>
<rect x="61" y="70" width="13" height="1" fill="rgb(189,87,38)"/>
<rect x="47" y="71" width="7" height="1" fill="rgb(189,87,38)"/>
<rect x="54" y="71" width="7" height="1" fill="rgb(255,255,255)"/>
<rect x="61" y="71" width="13" height="1" fill="rgb(189,87,38)"/>
<rect x="47" y="72" width="7" height="1" fill="rgb(189,87,38)"/>
<rect x="54" y="72" width="7" height="1" fill="rgb(255,255,255)"/>
<rect x="61" y="72" width="13" height="1" fill="rgb(189,87,38)"/>
<rect x="47" y="73" width="7" height="1" fill="rgb(189,87,38)"/>
<rect x="54" y="73" width="7" height="1" fill="rgb(255,255,255)"/>
<rect x="61" y="73" width="13" height="1" fill="rgb(189,87,38)"/>
<rect x="47" y="74" width="7" height="1" fill="rgb(189,87,38)"/>
<rect x="54" y="74" width="7" height="1" fill="rgb(255,255,255)"/>
<rect x="61" y="74" width="13" height="1" fill="rgb(189,87,38)"/>
<rect x="0" y="75" width="40" height="1" fill="rgb(189,87,38)"/>
<rect x="47" y="75" width="27" height="1" fill="rgb(189,87,38)"/>
<rect x="0" y="76" width="40" height="1" fill="rgb(189,87,38)"/>
<rect x="47" y="76" width="27" height="1" fill="rgb(189,87,38)"/>
<rect x="0" y="77" width="40" height="1" fill="rgb(189,87,38)"/>
<rect x="47" y="77" width="27" height="1" fill="rgb(189,87,38)"/>
<rect x="0" y="78" width="40" height="1" fill="rgb(189,87,38)"/>
<rect x="47" y="78" width="27" height="1" fill="rgb(189,87,38)"/>
<rect x="0" y="79" width="40" height="1" fill="rgb(189,87,38)"/>
<rect x="47" y="79" width="27" height="1" fill="rgb(189,87,38)"/>
<rect x="0" y="80" width="40" height="1" fill="rgb(189,87,38)"/>
<rect x="47" y="80" width="27" height="1" fill="rgb(189,87,38)"/>
<rect x="34" y="81" width="47" height="1" fill="rgb(189,87,38)"/>
<rect x="34" y="82" width="47" height="1" fill="rgb(189,87,38)"/>
<rect x="34" y="83" width="47" height="1" fill="rgb(189,87,38)"/>
<rect x="34" y="84" width="47" height="1" fill="rgb(189,87,38)"/>
<rect x="34" y="85" width="47" height="1" fill="rgb(189,87,38)"/>
<rect x="34" y="86" width="47" height="1" fill="rgb(189,87,38)"/>
<rect x="34" y="87" width="47" height="1" fill="rgb(189,87,38)"/>
<rect x="34" y="88" width="20" height="1" fill="rgb(189,87,38)"/>
<rect x="54" y="88" width="7" height="1" fill="rgb(255,255,255)"/>
<rect x="61" y="88" width="27" height="1" fill="rgb(189,87,38)"/>
<rect x="34" y="89" width="20" height="1" fill="rgb(189,87,38)"/>
<rect x="54" y="89" width="7" height="1" fill="rgb(255,255,255)"/>
<rect x="61" y="89" width="27" height="1" fill="rgb(189,87,38)"/>
<rect x="34" y="90" width="20" height="1" fill="rgb(189,87,38)"/>
<rect x="54" y="90" width="7" height="1" fill="rgb(255,255,255)"/>
<rect x="61" y="90" width="27" height="1" fill="rgb(189,87,38)"/>
<rect x="34" y="91" width="20" height="1" fill="rgb(189,87,38)"/>
<rect x="54" y="91" width="7" height="1" fill="rgb(255,255,255)"/>
<rect x="61" y="91" width="27" height="1" fill="rgb(189,87,38)"/>
<rect x="34" y="92" width="20" height="1" fill="rgb(189,87,38)"/>
<rect x="54" y="92" width="7" height="1" fill="rgb(255,255,255)"/>
<rect x="61" y="92" width="27" height="1" fill="rgb(189,87,38)"/>
<rect x="34" y="93" width="20" height="1" fill="rgb(189,87,38)"/>
<rect x="54" y="93" width="7" height="1" fill="rgb(255,255,255)"/>
<rect x="61" y="93" width="27" height="1" fill="rgb(189,87,38)"/>
<rect x="34" y="94" width="20" height="1" fill="rgb(189,87,38)"/>
<rect x="54" y="94" width="7" height="1" fill="rgb(255,255,255)"/>
<rect x="61" y="94" width="27" height="1" fill="rgb(189,87,38)"/>
<rect x="20" y="95" width="20" height="1" fill="rgb(189,87,38)"/>
<rect x="40" y="95" width="7" height="1" fill="rgb(255,255,255)"/>
<rect x="47" y="95" width="20" height="1" fill="rgb(189,87,38)"/>
<rect x="67" y="95" width="7" height="1" fill="rgb(255,255,255)"/>
<rect x="74" y="95" width="14" height="1" fill="rgb(189,87,38)"/>
<rect x="20" y="96" width="20" height="1" fill="rgb(189,87,38)"/>
<rect x="40" y="96" width="7" height="1" fill="rgb(255,255,255)"/>
<rect x="47" y="96" width="20" height="1" fill="rgb(189,87,38)"/>
<rect x="67" y="96" width="7" height="1" fill="rgb(255,255,255)"/>
<rect x="74" y="96" width="14" height="1" fill="rgb(189,87,38)"/>
<rect x="20" y="97" width="20" height="1" fill="rgb(189,87,38)"/>
<rect x="40" y="97" width="7" height="1" fill="rgb(255,255,255)"/>
<rect x="47" y="97" width="20" height="1" fill="rgb(189,87,38)"/>
<rect x="67" y="97" width="7" height="1" fill="rgb(255,255,255)"/>
<rect x="74" y="97" width="14" height="1" fill="rgb(189,87,38)"/>
<rect x="20" y="98" width="20" height="1" fill="rgb(189,87,38)"/>
<rect x="40" y="98" width="7" height="1" fill="rgb(255,255,255)"/>
<rect x="47" y="98" width="20" height="1" fill="rgb(189,87,38)"/>
<rect x="67" y="98" width="7" height="1" fill="rgb(255,255,255)"/>
<rect x="74" y="98" width="14" height="1" fill="rgb(189,87,38)"/>
<rect x="20" y="99" width="20" height="1" fill="rgb(189,87,38)"/>
<rect x="40" y="99" width="7" height="1" fill="rgb(255,255,255)"/>
<rect x="47" y="99" width="20" height="1" fill="rgb(189,87,38)"/>
<rect x="67" y="99" width="7" height="1" fill="rgb(255,255,255)"/>
<rect x="74" y="99" width="14" height="1" fill="rgb(189,87,38)"/>
<rect x="20" y="100" width="20" height="1" fill="rgb(189,87,38)"/>
<rect x="40" y="100" width="7" height="1" fill="rgb(255,255,255)"/>
<rect x="47" y="100" width="20" height="1" fill="rgb(189,87,38)"/>
<rect x="67" y="100" width="7" height="1" fill="rgb(255,255,255)"/>
<rect x="74" y="100" width="14" height="1" fill="rgb(189,87,38)"/>
<rect x="20" y="101" width="20" height="1" fill="rgb(189,87,38)"/>
<rect x="40" y="101" width="7" height="1" fill="rgb(255,255,255)"/>
<rect x="47" y="101" width="20" height="1" fill="rgb(189,87,38)"/>
<rect x="67" y="101" width="7" height="1" fill="rgb(255,255,255)"/>
<rect x="74" y="101" width="14" height="1" fill="rgb(189,87,38)"/>
<rect x="7" y="102" width="13" height="1" fill="rgb(189,87,38)"/>
<rect x="20" y="102" width="20" height="1" fill="rgb(255,255,255)"/>
<rect x="40" y="102" width="48" height="1" fill="rgb(189,87,38)"/>
<rect x="7" y="103" width="13" height="1" fill="rgb(189,87,38)"/>
<rect x="20" y="103" width="20" height="1" fill="rgb(255,255,255)"/>
<rect x="40" y="103" width="48" height="1" fill="rgb(189,87,38)"/>
<rect x="7" y="104" width="13" height="1" fill="rgb(189,87,38)"/>
<rect x="20" y="104" width="20" height="1" fill="rgb(255,255,255)"/>
<rect x="40" y="104" width="48" height="1" fill="rgb(189,87,38)"/>
<rect x="7" y="105" width="13" height="1" fill="rgb(189,87,38)"/>
<rect x="20" y="105" width="20" height="1" fill="rgb(255,255,255)"/>
<rect x="40" y="105" width="48" height="1" fill="rgb(189,87,38)"/>
<rect x="7" y="106" width="13" height="1" fill="rgb(189,87,38)"/>
<rect x="20" y="106" width="20" height="1" fill="rgb(255,255,255)"/>
<rect x="40" y="106" width="48" height="1" fill="rgb(189,87,38)"/>
<rect x="7" y="107" width="13" height="1" fill="rgb(189,87,38)"/>
<rect x="20" y="107" width="20" height="1" fill="rgb(255,255,255)"/>
<rect x="40" y="107" width="48" height="1" fill="rgb(189,87,38)"/>
<rect x="0" y="108" width="7" height="1" fill="rgb(189,87,38)"/>
<rect x="40" y="108" width="7" height="1" fill="rgb(255,255,255)"/>
<rect x="47" y="108" width="34" height="1" fill="rgb(189,87,38)"/>
<rect x="81" y="108" width="7" height="1" fill="rgb(255,255,255)"/>
<rect x="0" y="109" width="7" height="1" fill="rgb(189,87,38)"/>
<rect x="40" y="109" width="7" height="1" fill="rgb(255,255,255)"/>
<rect x="47" y="109" width="34" height="1" fill="rgb(189,87,38)"/>
<rect x="81" y="109" width="7" height="1" fill="rgb(255,255,255)"/>
<rect x="0" y="110" width="7" height="1" fill="rgb(189,87,38)"/>
<rect x="40" y="110" width="7" height="1" fill="rgb(255,255,255)"/>
<rect x="47" y="110" width="34" height="1" fill="rgb(189,87,38)"/>
<rect x="81" y="110" width="7" height="1" fill="rgb(255,255,255)"/>
<rect x="0" y="111" width="7" height="1" fill="rgb(189,87,38)"/>
<rect x="40" y="111" width="7" height="1" fill="rgb(255,255,255)"/>
<rect x="47" y="111" width="34" height="1" fill="rgb(189,87,38)"/>
<rect x="81" y="111" width="7" height="1" fill="rgb(255,255,255)"/>
<rect x="0" y="112" width="7" height="1" fill="rgb(189,87,38)"/>
<rect x="40" y="112" width="7" height="1" fill="rgb(255,255,255)"/>
<rect x="47" y="112" width="34" height="1" fill="rgb(189,87,38)"/>
<rect x="81" y="112" width="7" height="1" fill="rgb(255,255,255)"/>
<rect x="0" y="113" width="7" height="1" fill="rgb(189,87,38)"/>
<rect x="40" y="113" width="7" height="1" fill="rgb(255,255,255)"/>
<rect x="47" y="113" width="34" height="1" fill="rgb(189,87,38)"/>
<rect x="81" y="113" width="7" height="1" fill="rgb(255,255,255)"/>
<rect x="0" y="114" width="7" height="1" fill="rgb(189,87,38)"/>
<rect x="40" y="114" width="7" height="1" fill="rgb(255,255,255)"/>
<rect x="47" y="114" width="34" height="1" fill="rgb(189,87,38)"/>
<rect x="81" y="114" width="7" height="1" fill="rgb(255,255,255)"/>
<rect x="0" y="115" width="7" height="1" fill="rgb(189,87,38)"/>
<rect x="47" y="115" width="14" height="1" fill="rgb(255,255,255)"/>
<rect x="61" y="115" width="33" height="1" fill="rgb(189,87,38)"/>
<rect x="0" y="116" width="7" height="1" fill="rgb(189,87,38)"/>
<rect x="47" y="116" width="14" height="1" fill="rgb(255,255,255)"/>
<rect x="61" y="116" width="33" height="1" fill="rgb(189,87,38)"/>
<rect x="0" y="117" width="7" height="1" fill="rgb(189,87,38)"/>
<rect x="47" y="117" width="14" height="1" fill="rgb(255,255,255)"/>
<rect x="61" y="117" width="33" height="1" fill="rgb(189,87,38)"/>
<rect x="0" y="118" width="7" height="1" fill="rgb(189,87,38)"/>
<rect x="47" y="118" width="14" height="1" fill="rgb(255,255,255)"/>
<rect x="61" y="118" width="33" height="1" fill="rgb(189,87,38)"/>
<rect x="0" y="119" width="7" height="1" fill="rgb(189,87,38)"/>
<rect x="47" y="119" width="14" height="1" fill="rgb(255,255,255)"/>
<rect x="61" y="119" width="33" height="1" fill="rgb(189,87,38)"/>
<rect x="0" y="120" width="7" height="1" fill="rgb(189,87,38)"/>
<rect x="47" y="120" width="14" height="1" fill="rgb(255,255,255)"/>
<rect x="61" y="120" width="33" height="1" fill="rgb(189,87,38)"/>
<rect x="0" y="121" width="7" height="1" fill="rgb(189,87,38)"/>
<rect x="47" y="121" width="14" height="1" fill="rgb(255,255,255)"/>
<rect x="61" y="121" width="33" height="1" fill="rgb(189,87,38)"/>
<rect x="61" y="122" width="6" height="1" fill="rgb(255,255,255)"/>
<rect x="67" y="122" width="7" height="1" fill="rgb(189,87,38)"/>
<rect x="74" y="122" width="7" height="1" fill="rgb(255,255,255)"/>
<rect x="81" y="122" width="20" height="1" fill="rgb(189,87,38)"/>
<rect x="61" y="123" width="6" height="1" fill="rgb(255,255,255)"/>
<rect x="67" y="123" width="7" height="1" fill="rgb(189,87,38)"/>
<rect x="74" y="123" width="7" height="1" fill="rgb(255,255,255)"/>
<rect x="81" y="123" width="20" height="1" fill="rgb(189,87,38)"/>
<rect x="61" y="124" width="6" height="1" fill="rgb(255,255,255)"/>
<rect x="67" y="124" width="7" height="1" fill="rgb(189,87,38)"/>
<rect x="74" y="124" width="7" height="1" fill="rgb(255,255,255)"/>
<rect x="81" y="124" width="20" height="1" fill="rgb(189,87,38)"/>
<rect x="61" y="125" width="6" height="1" fill="rgb(255,255,255)"/>
<rect x="67" y="125" width="7" height="1" fill="rgb(189,87,38)"/>
<rect x="74" y="125" width="7" height="1" fill="rgb(255,255,255)"/>
<rect x="81" y="125" width="20" height="1" fill="rgb(189,87,38)"/>
<rect x="61" y="126" width="6" height="1" fill="rgb(255,255,255)"/>
<rect x="67" y="126" width="7" height="1" fill="rgb(189,87,38)"/>
<rect x="74" y="126" width="7" height="1" fill="rgb(255,255,255)"/>
<rect x="81" y="126" width="20" height="1" fill="rgb(189,87,38)"/>
<rect x="61" y="127" width="6" height="1" fill="rgb(255,255,255)"/>
<rect x="67" y="127" width="7" height="1" fill="rgb(189,87,38)"/>
<rect x="74" y="127" width="7" height="1" fill="rgb(255,255,255)"/>
<rect x="81" y="127" width="20" height="1" fill="rgb(189,87,38)"/>
<rect x="61" y="128" width="6" height="1" fill="rgb(255,255,255)"/>
<rect x="67" y="128" width="7" height="1" fill="rgb(189,87,38)"/>
<rect x="74" y="128" width="7" height="1" fill="rgb(255,255,255)"/>
<rect x="81" y="128" width="20" height="1" fill="rgb(189,87,38)"/>
<rect x="61" y="129" width="6" height="1" fill="rgb(255,255,255)"/>
<rect x="67" y="129" width="21" height="1" fill="rgb(189,87,38)"/>
<rect x="88" y="129" width="6" height="1" fill="rgb(255,255,255)"/>
<rect x="94" y="129" width="7" height="1" fill="rgb(189,87,38)"/>
<rect x="61" y="130" width="6" height="1" fill="rgb(255,255,255)"/>
<rect x="67" y="130" width="21" height="1" fill="rgb(189,87,38)"/>
<rect x="88" y="130" width="6" height="1" fill="rgb(255,255,255)"/>
<rect x="94" y="130" width="7" height="1" fill="rgb(189,87,38)"/>
<rect x="61" y="131" width="6" height="1" fill="rgb(255,255,255)"/>
<rect x="67" y="131" width="21" height="1" fill="rgb(189,87,38)"/>
<rect x="88" y="131" width="6" height="1" fill="rgb(255,255,255)"/>
<rect x="94" y="131" width="7" height="1" fill="rgb(189,87,38)"/>
<rect x="61" y="132" width="6" height="1" fill="rgb(255,255,255)"/>
<rect x="67" y="132" width="21" height="1" fill="rgb(189,87,38)"/>
<rect x="88" y="132" width="6" height="1" fill="rgb(255,255,255)"/>
<rect x="94" y="132" width="7" height="1" fill="rgb(189,87,38)"/>
<rect x="61" y="133" width="6" height="1" fill="rgb(255,255,255)"/>
<rect x="67" y="133" width="21" height="1" fill="rgb(189,87,38)"/>
<rect x="88" y="133" width="6" height="1" fill="rgb(255,255,255)"/>
<rect x="94" y="133" width="7" height="1" fill="rgb(189,87,38)"/>
<rect x="61" y="134" width="6" height="1" fill="rgb(255,255,255)"/>
<rect x="67" y="134" width="21" height="1" fill="rgb(189,87,38)"/>
<rect x="88" y="134" width="6" height="1" fill="rgb(255,255,255)"/>
<rect x="94" y="134" width="7" height="1" fill="rgb(189,87,38)"/>
<rect x="61" y="135" width="6" height="1" fill="rgb(189,87,38)"/>
<rect x="67" y="135" width="7" height="1" fill="rgb(255,255,255)"/>
<rect x="74" y="135" width="14" height="1" fill="rgb(189,87,38)"/>
<rect x="88" y="135" width="6" height="1" fill="rgb(255,255,255)"/>
<rect x="94" y="135" width="7" height="1" fill="rgb(189,87,38)"/>
<rect x="101" y="135" width="14" height="1" fill="rgb(255,255,255)"/>
<rect x="61" y="136" width="6" height="1" fill="rgb(189,87,38)"/>
<rect x="67" y="136" width="7" height="1" fill="rgb(255,255,255)"/>
<rect x="74" y="136" width="14" height="1" fill="rgb(189,87,38)"/>
<rect x="88" y="136" width="6" height="1" fill="rgb(255,255,255)"/>
<rect x="94" y="136" width="7" height="1" fill="rgb(189,87,38)"/>
<rect x="101" y="136" width="14" height="1" fill="rgb(255,255,255)"/>
<rect x="61" y="137" width="6" height="1" fill="rgb(189,87,38)"/>
<rect x="67" y="137" width="7" height="1" fill="rgb(255,255,255)"/>
<rect x="74" y="137" width="14" height="1" fill="rgb(189,87,38)"/>
<rect x="88" y="137" width="6" height="1" fill="rgb(255,255,255)"/>
<rect x="94" y="137" width="7" height="1" fill="rgb(189,87,38)"/>
<rect x="101" y="137" width="14" height="1" fill="rgb(255,255,255)"/>
<rect x="61" y="138" width="6" height="1" fill="rgb(189,87,38)"/>
<rect x="67" y="138" width="7" height="1" fill="rgb(255,255,255)"/>
<rect x="74" y="138" width="14" height="1" fill="rgb(189,87,38)"/>
<rect x="88" y="138" width="6" height="1" fill="rgb(255,255,255)"/>
<rect x="94" y="138" width="7" height="1" fill="rgb(189,87,38)"/>
<rect x="101" y="138" width="14" height="1" fill="rgb(255,255,255)"/>
<rect x="61" y="139" width="6" height="1" fill="rgb(189,87,38)"/>
<rect x="67" y="139" width="7" height="1" fill="rgb(255,255,255)"/>
<rect x="74" y="139" width="14" height="1" fill="rgb(189,87,38)"/>
<rect x="88" y="139" width="6" height="1" fill="rgb(255,255,255)"/>
<rect x="94" y="139" width="7" height="1" fill="rgb(189,87,38)"/>
<rect x="101" y="139" width="14" height="1" fill="rgb(255,255,255)"/>
<rect x="61" y="140" width="6" height="1" fill="rgb(189,87,38)"/>
<rect x="67" y="140" width="7" height="1" fill="rgb(255,255,255)"/>
<rect x="74" y="140" width="14" height="1" fill="rgb(189,87,38)"/>
<rect x="88" y="140" width="6" height="1" fill="rgb(255,255,255)"/>
<rect x="94" y="140" width="7" height="1" fill="rgb(189,87,38)"/>
<rect x="101" y="140" width="14" height="1" fill="rgb(255,255,255)"/>
<rect x="61" y="141" width="6" height="1" fill="rgb(189,87,38)"/>
<rect x="67" y="141" width="7" height="1" fill="rgb(255,255,255)"/>
<rect x="74" y="141" width="14" height="1" fill="rgb(189,87,38)"/>
<rect x="88" y="141" width="6" height="1" fill="rgb(255,255,255)"/>
<rect x="94" y="141" width="7" height="1" fill="rgb(189,87,38)"/>
<rect x="101" y="141" width="14" height="1" fill="rgb(255,255,255)"/>
<rect x="61" y="142" width="27" height="1" fill="rgb(189,87,38)"/>
<rect x="88" y="142" width="6" height="1" fill="rgb(255,255,255)"/>
<rect x="115" y="142" width="7" height="1" fill="rgb(255,255,255)"/>
<rect x="61" y="143" width="27" height="1" fill="rgb(189,87,38)"/>
<rect x="88" y="143" width="6" height="1" fill="rgb(255,255,255)"/>
<rect x="115" y="143" width="7" height="1" fill="rgb(255,255,255)"/>
<rect x="61" y="144" width="27" height="1" fill="rgb(189,87,38)"/>
<rect x="88" y="144" width="6" height="1" fill="rgb(255,255,255)"/>
<rect x="115" y="144" width="7" height="1" fill="rgb(255,255,255)"/>
<rect x="61" y="145" width="27" height="1" fill="rgb(189,87,38)"/>
<rect x="88" y="145" width="6" height="1" fill="rgb(255,255,255)"/>
<rect x="115" y="145" width="7" height="1" fill="rgb(255,255,255)"/>
<rect x="61" y="146" width="27" height="1" fill="rgb(189,87,38)"/>
<rect x="88" y="146" width="6" height="1" fill="rgb(255,255,255)"/>
<rect x="115" y="146" width="7" height="1" fill="rgb(255,255,255)"/>
<rect x="61" y="147" width="27" height="1" fill="rgb(189,87,38)"/>
<rect x="88" y="147" width="6" height="1" fill="rgb(255,255,255)"/>
<rect x="115" y="147" width="7" height="1" fill="rgb(255,255,255)"/>
<rect x="61" y="148" width="27" height="1" fill="rgb(189,87,38)"/>
<rect x="88" y="148" width="6" height="1" fill="rgb(255,255,255)"/>
<rect x="115" y="148" width="7" height="1" fill="rgb(255,255,255)"/>
<rect x="54" y="149" width="20" height="1" fill="rgb(189,87,38)"/>
<rect x="81" y="149" width="7" height="1" fill="rgb(189,87,38)"/>
<rect x="88" y="149" width="6" height="1" fill="rgb(255,255,255)"/>
<rect x="54" y="150" width="20" height="1" fill="rgb(189,87,38)"/>
<rect x="81" y="150" width="7" height="1" fill="rgb(189,87,38)"/>
<rect x="88" y="150" width="6" height="1" fill="rgb(255,255,255)"/>
<rect x="54" y="151" width="20" height="1" fill="rgb(189,87,38)"/>
<rect x="81" y="151" width="7" height="1" fill="rgb(189,87,38)"/>
<rect x="88" y="151" width="6" height="1" fill="rgb(255,255,255)"/>
<rect x="54" y="152" width="20" height="1" fill="rgb(189,87,38)"/>
<rect x="81" y="152" width="7" height="1" fill="rgb(189,87,38)"/>
<rect x="88" y="152" width="6" height="1" fill="rgb(255,255,255)"/>
<rect x="54" y="153" width="20" height="1" fill="rgb(189,87,38)"/>
<rect x="81" y="153" width="7" height="1" fill="rgb(189,87,38)"/>
<rect x="88" y="153" width="6" height="1" fill="rgb(255,255,255)"/>
<rect x="54" y="154" width="20" height="1" fill="rgb(189,87,38)"/>
<rect x="81" y="154" width="7" height="1" fill="rgb(189,87,38)"/>
<rect x="88" y="154" width="6" height="1" fill="rgb(255,255,255)"/>
<rect x="54" y="155" width="20" height="1" fill="rgb(189,87,38)"/>
<rect x="81" y="155" width="7" height="1" fill="rgb(189,87,38)"/>
<rect x="88" y="155" width="6" height="1" fill="rgb(255,255,255)"/>
<rect x="47" y="156" width="14" height="1" fill="rgb(189,87,38)"/>
<rect x="81" y="156" width="13" height="1" fill="rgb(189,87,38)"/>
<rect x="94" y="156" width="7" height="1" fill="rgb(255,255,255)"/>
<rect x="47" y="157" width="14" height="1" fill="rgb(189,87,38)"/>
<rect x="81" y="157" width="13" height="1" fill="rgb(189,87,38)"/>
<rect x="94" y="157" width="7" height="1" fill="rgb(255,255,255)"/>
<rect x="47" y="158" width="14" height="1" fill="rgb(189,87,38)"/>
<rect x="81" y="158" width="13" height="1" fill="rgb(189,87,38)"/>
<rect x="94" y="158" width="7" height="1" fill="rgb(255,255,255)"/>
<rect x="47" y="159" width="14" height="1" fill="rgb(189,87,38)"/>
<rect x="81" y="159" width="13" height="1" fill="rgb(189,87,38)"/>
<rect x="94" y="159" width="7" height="1" fill="rgb(255,255,255)"/>
<rect x="47" y="160" width="14" height="1" fill="rgb(189,87,38)"/>
<rect x="81" y="160" width="13" height="1" fill="rgb(189,87,38)"/>
<rect x="94" y="160" width="7" height="1" fill="rgb(255,255,255)"/>
<rect x="47" y="161" width="14" height="1" fill="rgb(189,87,38)"/>
<rect x="81" y="161" width="13" height="1" fill="rgb(189,87,38)"/>
<rect x="94" y="161" width="7" height="1" fill="rgb(255,255,255)"/>
<rect x="47" y="162" width="7" height="1" fill="rgb(189,87,38)"/>
<rect x="88" y="162" width="6" height="1" fill="rgb(189,87,38)"/>
<rect x="94" y="162" width="7" height="1" fill="rgb(255,255,255)"/>
<rect x="47" y="163" width="7" height="1" fill="rgb(189,87,38)"/>
<rect x="88" y="163" width="6" height="1" fill="rgb(189,87,38)"/>
<rect x="94" y="163" width="7" height="1" fill="rgb(255,255,255)"/>
<rect x="47" y="164" width="7" height="1" fill="rgb(189,87,38)"/>
<rect x="88" y="164" width="6" height="1" fill="rgb(189,87,38)"/>
<rect x="94" y="164" width="7" height="1" fill="rgb(255,255,255)"/>
<rect x="47" y="165" width="7" height="1" fill="rgb(189,87,38)"/>
<rect x="88" y="165" width="6" height="1" fill="rgb(189,87,38)"/>
<rect x="94" y="165" width="7" height="1" fill="rgb(255,255,255)"/>
<rect x="47" y="166" width="7" height="1" fill="rgb(189,87,38)"/>
<rect x="88" y="166" width="6" height="1" fill="rgb(189,87,38)"/>
<rect x="94" y="166" width="7" height="1" fill="rgb(255,255,255)"/>
<rect x="47" y="167" width="7" height="1" fill="rgb(189,87,38)"/>
<rect x="88" y="167" width="6" height="1" fill="rgb(189,87,38)"/>
<rect x="94" y="167" width="7" height="1" fill="rgb(255,255,255)"/>
<rect x="47" y="168" width="7" height="1" fill="rgb(189,87,38)"/>
<rect x="88" y="168" width="6" height="1" fill="rgb(189,87,38)"/>
<rect x="94" y="168" width="7" height="1" fill="rgb(255,255,255)"/>
<rect x="47" y="169" width="7" height="1" fill="rgb(189,87,38)"/>
<rect x="88" y="169" width="6" height="1" fill="rgb(189,87,38)"/>
<rect x="47" y="170" width="7" height="1" fill="rgb(189,87,38)"/>
<rect x="88" y="170" width="6" height="1" fill="rgb(189,87,38)"/>
<rect x="47" y="171" width="7" height="1" fill="rgb(189,87,38)"/>
<rect x="88" y="171" width="6" height="1" fill="rgb(189,87,38)"/>
<rect x="47" y="172" width="7" height="1" fill="rgb(189,87,38)"/>
<rect x="88" y="172" width="6" height="1" fill="rgb(189,87,38)"/>
<rect x="47" y="173" width="7" height="1" fill="rgb(189,87,38)"/>
<rect x="88" y="173" width="6" height="1" fill="rgb(189,87,38)"/>
<rect x="47" y="174" width="7" height="1" fill="rgb(189,87,38)"/>
<rect x="88" y="174" width="6" height="1" fill="rgb(189,87,38)"/>
<rect x="47" y="175" width="7" height="1" fill="rgb(189,87,38)"/>
<rect x="88" y="175" width="6" height="1" fill="rgb(189,87,38)"/>
<rect x="47" y="176" width="7" height="1" fill="rgb(189,87,38)"/>
<rect x="88" y="176" width="6" height="1" fill="rgb(189,87,38)"/>
<rect x="47" y="177" width="7" height="1" fill="rgb(189,87,38)"/>
<rect x="88" y="177" width="6" height="1" fill="rgb(189,87,38)"/>
<rect x="47" y="178" width="7" height="1" fill="rgb(189,87,38)"/>
<rect x="88" y="178" width="6" height="1" fill="rgb(189,87,38)"/>
<rect x="47" y="179" width="7" height="1" fill="rgb(189,87,38)"/>
<rect x="88" y="179" width="6" height="1" fill="rgb(189,87,38)"/>
<rect x="47" y="180" width="7" height="1" fill="rgb(189,87,38)"/>
<rect x="88" y="180" width="6" height="1" fill="rgb(189,87,38)"/>
<rect x="47" y="181" width="7" height="1" fill="rgb(189,87,38)"/>
<rect x="88" y="181" width="6" height="1" fill="rgb(189,87,38)"/>
<rect x="47" y="182" width="7" height="1" fill="rgb(189,87,38)"/>
<rect x="88" y="182" width="6" height="1" fill="rgb(189,87,38)"/>
<rect x="40" y="183" width="7" height="1" fill="rgb(189,87,38)"/>
<rect x="81" y="183" width="7" height="1" fill="rgb(189,87,38)"/>
<rect x="40" y="184" width="7" height="1" fill="rgb(189,87,38)"/>
<rect x="81" y="184" width="7" height="1" fill="rgb(189,87,38)"/>
<rect x="40" y="185" width="7" height="1" fill="rgb(189,87,38)"/>
<rect x="81" y="185" width="7" height="1" fill="rgb(189,87,38)"/>
<rect x="40" y="186" width="7" height="1" fill="rgb(189,87,38)"/>
<rect x="81" y="186" width="7" height="1" fill="rgb(189,87,38)"/>
<rect x="40" y="187" width="7" height="1" fill="rgb(189,87,38)"/>
<rect x="81" y="187" width="7" height="1" fill="rgb(189,87,38)"/>
<rect x="40" y="188" width="7" height="1" fill="rgb(189,87,38)"/>
<rect x="81" y="188" width="7" height="1" fill="rgb(189,87,38)"/>
<rect x="40" y="189" width="7" height="1" fill="rgb(189,87,38)"/>
<rect x="81" y="189" width="7" height="1" fill="rgb(189,87,38)"/>
<rect x="40" y="190" width="7" height="1" fill="rgb(189,87,38)"/>
<rect x="81" y="190" width="7" height="1" fill="rgb(189,87,38)"/>
<rect x="40" y="191" width="7" height="1" fill="rgb(189,87,38)"/>
<rect x="81" y="191" width="7" height="1" fill="rgb(189,87,38)"/>
<rect x="40" y="192" width="7" height="1" fill="rgb(189,87,38)"/>
<rect x="81" y="192" width="7" height="1" fill="rgb(189,87,38)"/>
<rect x="40" y="193" width="7" height="1" fill="rgb(189,87,38)"/>
<rect x="81" y="193" width="7" height="1" fill="rgb(189,87,38)"/>
<rect x="40" y="194" width="7" height="1" fill="rgb(189,87,38)"/>
<rect x="81" y="194" width="7" height="1" fill="rgb(189,87,38)"/>
<rect x="40" y="195" width="7" height="1" fill="rgb(189,87,38)"/>
<rect x="81" y="195" width="7" height="1" fill="rgb(189,87,38)"/>
<rect x="40" y="196" width="7" height="1" fill="rgb(189,87,38)"/>
<rect x="81" y="196" width="7" height="1" fill="rgb(189,87,38)"/>
</svg>