<svg xmlns="http://www.w3.org/2000/svg" viewBox="0 0 149 150">
<rect x="27" y="0" width="7" height="1" fill="rgb(189,87,38)"/>
<rect x="27" y="1" width="7" height="1" fill="rgb(189,87,38)"/>
<rect x="27" y="2" width="7" height="1" fill="rgb(189,87,38)"/>
<rect x="27" y="3" width="7" height="1" fill="rgb(189,87,38)"/>
<rect x="27" y="4" width="7" height="1" fill="rgb(189,87,38)"/>
<rect x="27" y="5" width="7" height="1" fill="rgb(189,87,38)"/>
<rect x="27" y="6" width="7" height="1" fill="rgb(189,87,38)"/>
<rect x="27" y="7" width="7" height="1" fill="rgb(189,87,38)"/>
<rect x="27" y="8" width="7" height="1" fill="rgb(189,87,38)"/>
<rect x="27" y="9" width="7" height="1" fill="rgb(189,87,38)"/>
<rect x="27" y="10" width="7" height="1" fill="rgb(189,87,38)"/>
<rect x="27" y="11" width="7" height="1" fill="rgb(189,87,38)"/>
<rect x="27" y="12" width="7" height="1" fill="rgb(189,87,38)"/>
<rect x="27" y="13" width="7" height="1" fill="rgb(189,87,38)"/>
<rect x="14" y="14" width="27" height="1" fill="rgb(189,87,38)"/>
<rect x="14" y="15" width="27" height="1" fill="rgb(189,87,38)"/>
<rect x="14" y="16" width="27" height="1" fill="rgb(189,87,38)"/>
<rect x="14" y="17" width="27" height="1" fill="rgb(189,87,38)"/>
<rect x="14" y="18" width="27" height="1" fill="rgb(189,87,38)"/>
<rect x="14" y="19" width="27" height="1" fill="rgb(189,87,38)"/>
<rect x="14" y="20" width="27" height="1" fill="rgb(189,87,38)"/>
<rect x="34" y="21" width="7" height="1" fill="rgb(189,87,38)"/>
<rect x="34" y="22" width="7" height="1" fill="rgb(189,87,38)"/>
<rect x="34" y="23" width="7" height="1" fill="rgb(189,87,38)"/>
<rect x="34" y="24" width="7" height="1" fill="rgb(189,87,38)"/>
<rect x="34" y="25" width="7" height="1" fill="rgb(189,87,38)"/>
<rect x="34" y="26" width="7" height="1" fill="rgb(189,87,38)"/>
<rect x="34" y="27" width="7" height="1" fill="rgb(189,87,38)"/>
<rect x="34" y="28" width="7" height="1" fill="rgb(189,87,38)"/>
<rect x="34" y="29" width="7" height="1" fill="rgb(189,87,38)"/>
<rect x="34" y="30" width="7" height="1" fill="rgb(189,87,38)"/>
<rect x="34" y="31" width="7" height="1" fill="rgb(189,87,38)"/>
<rect x="34" y="32" width="7" height="1" fill="rgb(189,87,38)"/>
<rect x="34" y="33" width="7" height="1" fill="rgb(189,87,38)"/>
<rect x="14" y="34" width="47" height="1" fill="rgb(189,87,38)"/>
<rect x="14" y="35" width="47" height="1" fill="rgb(189,87,38)"/>
<rect x="14" y="36" width="47" height="1" fill="rgb(189,87,38)"/>
<rect x="14" y="37" width="47" height="1" fill="rgb(189,87,38)"/>
<rect x="14" y="38" width="47" height="1" fill="rgb(189,87,38)"/>
<rect x="14" y="39" width="47" height="1" fill="rgb(189,87,38)"/>
<rect x="14" y="40" width="47" height="1" fill="rgb(189,87,38)"/>
<rect x="0" y="41" width="47" height="1" fill="rgb(189,87,38)"/>
<rect x="0" y="42" width="47" height="1" fill="rgb(189,87,38)"/>
<rect x="0" y="43" width="47" height="1" fill="rgb(189,87,38)"/>
<rect x="0" y="44" width="47" height="1" fill="rgb(189,87,38)"/>
<rect x="0" y="45" width="47" height="1" fill="rgb(189,87,38)"/>
<rect x="0" y="46" width="47" height="1" fill="rgb(189,87,38)"/>
<rect x="0" y="47" width="47" height="1" fill="rgb(189,87,38)"/>
<rect x="0" y="48" width="41" height="1" fill="rgb(189,87,38)"/>
<rect x="0" y="49" width="41" height="1" fill="rgb(189,87,38)"/>
<rect x="0" y="50" width="41" height="1" fill="rgb(189,87,38)"/>
<rect x="0" y="51" width="41" height="1" fill="rgb(189,87,38)"/>
<rect x="0" y="52" width="41" height="1" fill="rgb(189,87,38)"/>
<rect x="0" y="53" width="41" height="1" fill="rgb(189,87,38)"/>
<rect x="0" y="54" width="41" height="1" fill="rgb(189,87,38)"/>
<rect x="27" y="55" width="14" height="1" fill="rgb(189,87,38)"/>
<rect x="27" y="56" width="14" height="1" fill="rgb(189,87,38)"/>
<rect x="27" y="57" width="14" height="1" fill="rgb(189,87,38)"/>
<rect x="27" y="58" width="14" height="1" fill="rgb(189,87,38)"/>
<rect x="27" y="59" width="14" height="1" fill="rgb(189,87,38)"/>
<rect x="27" y="60" width="14" height="1" fill="rgb(189,87,38)"/>
<rect x="27" y="61" width="20" height="1" fill="rgb(189,87,38)"/>
<rect x="27" y="62" width="20" height="1" fill="rgb(189,87,38)"/>
<rect x="27" y="63" width="20" height="1" fill="rgb(189,87,38)"/>
<rect x="27" y="64" width="20" height="1" fill="rgb(189,87,38)"/>
<rect x="27" y="65" width="20" height="1" fill="rgb(189,87,38)"/>
<rect x="27" y="66" width="20" height="1" fill="rgb(189,87,38)"/>
<rect x="27" y="67" width="20" height="1" fill="rgb(189,87,38)"/>
<rect x="27" y="68" width="7" height="1" fill="rgb(189,87,38)"/>
<rect x="34" y="68" width="7" height="1" fill="rgb(231,187,135)"/>
<rect x="41" y="68" width="20" height="1" fill="rgb(189,87,38)"/>
<rect x="88" y="68" width="27" height="1" fill="rgb(189,87,38)"/>
<rect x="27" y="69" width="7" height="1" fill="rgb(189,87,38)"/>
<rect x="34" y="69" width="7" height="1" fill="rgb(231,187,135)"/>
<rect x="41" y="69" width="20" height="1" fill="rgb(189,87,38)"/>
<rect x="88" y="69" width="27" height="1" fill="rgb(189,87,38)"/>
<rect x="27" y="70" width="7" height="1" fill="rgb(189,87,38)"/>
<rect x="34" y="70" width="7" height="1" fill="rgb(231,187,135)"/>
<rect x="41" y="70" width="20" height="1" fill="rgb(189,87,38)"/>
<rect x="88" y="70" width="27" height="1" fill="rgb(189,87,38)"/>
<rect x="27" y="71" width="7" height="1" fill="rgb(189,87,38)"/>
<rect x="34" y="71" width="7" height="1" fill="rgb(231,187,135)"/>
<rect x="41" y="71" width="20" height="1" fill="rgb(189,87,38)"/>
<rect x="88" y="71" width="27" height="1" fill="rgb(189,87,38)"/>
<rect x="27" y="72" width="7" height="1" fill="rgb(189,87,38)"/>
<rect x="34" y="72" width="7" height="1" fill="rgb(231,187,135)"/>
<rect x="41" y="72" width="20" height="1" fill="rgb(189,87,38)"/>
<rect x="88" y="72" width="27" height="1" fill="rgb(189,87,38)"/>
<rect x="27" y="73" width="7" height="1" fill="rgb(189,87,38)"/>
<rect x="34" y="73" width="7" height="1" fill="rgb(231,187,135)"/>
<rect x="41" y="73" width="20" height="1" fill="rgb(189,87,38)"/>
<rect x="88" y="73" width="27" height="1" fill="rgb(189,87,38)"/>
<rect x="27" y="74" width="7" height="1" fill="rgb(189,87,38)"/>
<rect x="34" y="74" width="7" height="1" fill="rgb(231,187,135)"/>
<rect x="41" y="74" width="20" height="1" fill="rgb(189,87,38)"/>
<rect x="88" y="74" width="27" height="1" fill="rgb(189,87,38)"/>
<rect x="27" y="75" width="61" height="1" fill="rgb(189,87,38)"/>
<rect x="88" y="75" width="7" height="1" fill="rgb(231,187,135)"/>
<rect x="95" y="75" width="33" height="1" fill="rgb(189,87,38)"/>
<rect x="27" y="76" width="61" height="1" fill="rgb(189,87,38)"/>
<rect x="88" y="76" width="7" height="1" fill="rgb(231,187,135)"/>
<rect x="95" y="76" width="33" height="1" fill="rgb(189,87,38)"/>
<rect x="27" y="77" width="61" height="1" fill="rgb(189,87,38)"/>
<rect x="88" y="77" width="7" height="1" fill="rgb(231,187,135)"/>
<rect x="95" y="77" width="33" height="1" fill="rgb(189,87,38)"/>
<rect x="27" y="78" width="61" height="1" fill="rgb(189,87,38)"/>
<rect x="88" y="78" width="7" height="1" fill="rgb(231,187,135)"/>
<rect x="95" y="78" width="33" height="1" fill="rgb(189,87,38)"/>
<rect x="27" y="79" width="61" height="1" fill="rgb(189,87,38)"/>
<rect x="88" y="79" width="7" height="1" fill="rgb(231,187,135)"/>
<rect x="95" y="79" width="33" height="1" fill="rgb(189,87,38)"/>
<rect x="27" y="80" width="61" height="1" fill="rgb(189,87,38)"/>
<rect x="88" y="80" width="7" height="1" fill="rgb(231,187,135)"/>
<rect x="95" y="80" width="33" height="1" fill="rgb(189,87,38)"/>
<rect x="27" y="81" width="61" height="1" fill="rgb(189,87,38)"/>
<rect x="88" y="81" width="7" height="1" fill="rgb(231,187,135)"/>
<rect x="95" y="81" width="33" height="1" fill="rgb(189,87,38)"/>
<rect x="34" y="82" width="7" height="1" fill="rgb(189,87,38)"/>
<rect x="41" y="82" width="6" height="1" fill="rgb(231,187,135)"/>
<rect x="47" y="82" width="21" height="1" fill="rgb(189,87,38)"/>
<rect x="68" y="82" width="6" height="1" fill="rgb(231,187,135)"/>
<rect x="74" y="82" width="27" height="1" fill="rgb(189,87,38)"/>
<rect x="101" y="82" width="7" height="1" fill="rgb(231,187,135)"/>
<rect x="108" y="82" width="27" height="1" fill="rgb(189,87,38)"/>
<rect x="142" y="82" width="7" height="1" fill="rgb(231,187,135)"/>
<rect x="34" y="83" width="7" height="1" fill="rgb(189,87,38)"/>
<rect x="41" y="83" width="6" height="1" fill="rgb(231,187,135)"/>
<rect x="47" y="83" width="21" height="1" fill="rgb(189,87,38)"/>
<rect x="68" y="83" width="6" height="1" fill="rgb(231,187,135)"/>
<rect x="74" y="83" width="27" height="1" fill="rgb(189,87,38)"/>
<rect x="101" y="83" width="7" height="1" fill="rgb(231,187,135)"/>
<rect x="108" y="83" width="27" height="1" fill="rgb(189,87,38)"/>
<rect x="142" y="83" width="7" height="1" fill="rgb(231,187,135)"/>
<rect x="34" y="84" width="7" height="1" fill="rgb(189,87,38)"/>
<rect x="41" y="84" width="6" height="1" fill="rgb(231,187,135)"/>
<rect x="47" y="84" width="21" height="1" fill="rgb(189,87,38)"/>
<rect x="68" y="84" width="6" height="1" fill="rgb(231,187,135)"/>
<rect x="74" y="84" width="27" height="1" fill="rgb(189,87,38)"/>
<rect x="101" y="84" width="7" height="1" fill="rgb(231,187,135)"/>
<rect x="108" y="84" width="27" height="1" fill="rgb(189,87,38)"/>
<rect x="142" y="84" width="7" height="1" fill="rgb(231,187,135)"/>
<rect x="34" y="85" width="7" height="1" fill="rgb(189,87,38)"/>
<rect x="41" y="85" width="6" height="1" fill="rgb(231,187,135)"/>
<rect x="47" y="85" width="21" height="1" fill="rgb(189,87,38)"/>
<rect x="68" y="85" width="6" height="1" fill="rgb(231,187,135)"/>
<rect x="74" y="85" width="27" height="1" fill="rgb(189,87,38)"/>
<rect x="101" y="85" width="7" height="1" fill="rgb(231,187,135)"/>
<rect x="108" y="85" width="27" height="1" fill="rgb(189,87,38)"/>
<rect x="142" y="85" width="7" height="1" fill="rgb(231,187,135)"/>
<rect x="34" y="86" width="7" height="1" fill="rgb(189,87,38)"/>
<rect x="41" y="86" width="6" height="1" fill="rgb(231,187,135)"/>
<rect x="47" y="86" width="21" height="1" fill="rgb(189,87,38)"/>
<rect x="68" y="86" width="6" height="1" fill="rgb(231,187,135)"/>
<rect x="74" y="86" width="27" height="1" fill="rgb(189,87,38)"/>
<rect x="101" y="86" width="7" height="1" fill="rgb(231,187,135)"/>
<rect x="108" y="86" width="27" height="1" fill="rgb(189,87,38)"/>
<rect x="142" y="86" width="7" height="1" fill="rgb(231,187,135)"/>
<rect x="34" y="87" width="7" height="1" fill="rgb(189,87,38)"/>
<rect x="41" y="87" width="6" height="1" fill="rgb(231,187,135)"/>
<rect x="47" y="87" width="21" height="1" fill="rgb(189,87,38)"/>
<rect x="68" y="87" width="6" height="1" fill="rgb(231,187,135)"/>
<rect x="74" y="87" width="27" height="1" fill="rgb(189,87,38)"/>
<rect x="101" y="87" width="7" height="1" fill="rgb(231,187,135)"/>
<rect x="108" y="87" width="27" height="1" fill="rgb(189,87,38)"/>
<rect x="142" y="87" width="7" height="1" fill="rgb(231,187,135)"/>
<rect x="34" y="88" width="88" height="1" fill="rgb(189,87,38)"/>
<rect x="128" y="88" width="14" height="1" fill="rgb(231,187,135)"/>
<rect x="34" y="89" width="88" height="1" fill="rgb(189,87,38)"/>
<rect x="128" y="89" width="14" height="1" fill="rgb(231,187,135)"/>
<rect x="34" y="90" width="88" height="1" fill="rgb(189,87,38)"/>
<rect x="128" y="90" width="14" height="1" fill="rgb(231,187,135)"/>
<rect x="34" y="91" width="88" height="1" fill="rgb(189,87,38)"/>
<rect x="128" y="91" width="14" height="1" fill="rgb(231,187,135)"/>
<rect x="34" y="92" width="88" height="1" fill="rgb(189,87,38)"/>
<rect x="128" y="92" width="14" height="1" fill="rgb(231,187,135)"/>
<rect x="34" y="93" width="88" height="1" fill="rgb(189,87,38)"/>
<rect x="128" y="93" width="14" height="1" fill="rgb(231,187,135)"/>
<rect x="34" y="94" width="88" height="1" fill="rgb(189,87,38)"/>
<rect x="128" y="94" width="14" height="1" fill="rgb(231,187,135)"/>
<rect x="34" y="95" width="20" height="1" fill="rgb(189,87,38)"/>
<rect x="54" y="95" width="7" height="1" fill="rgb(231,187,135)"/>
<rect x="61" y="95" width="20" height="1" fill="rgb(189,87,38)"/>
<rect x="81" y="95" width="7" height="1" fill="rgb(231,187,135)"/>
<rect x="88" y="95" width="20" height="1" fill="rgb(189,87,38)"/>
<rect x="108" y="95" width="7" height="1" fill="rgb(231,187,135)"/>
<rect x="34" y="96" width="20" height="1" fill="rgb(189,87,38)"/>
<rect x="54" y="96" width="7" height="1" fill="rgb(231,187,135)"/>
<rect x="61" y="96" width="20" height="1" fill="rgb(189,87,38)"/>
<rect x="81" y="96" width="7" height="1" fill="rgb(231,187,135)"/>
<rect x="88" y="96" width="20" height="1" fill="rgb(189,87,38)"/>
<rect x="108" y="96" width="7" height="1" fill="rgb(231,187,135)"/>
<rect x="34" y="97" width="20" height="1" fill="rgb(189,87,38)"/>
<rect x="54" y="97" width="7" height="1" fill="rgb(231,187,135)"/>
<rect x="61" y="97" width="20" height="1" fill="rgb(189,87,38)"/>
<rect x="81" y="97" width="7" height="1" fill="rgb(231,187,135)"/>
<rect x="88" y="97" width="20" height="1" fill="rgb(189,87,38)"/>
<rect x="108" y="97" width="7" height="1" fill="rgb(231,187,135)"/>
<rect x="34" y="98" width="20" height="1" fill="rgb(189,87,38)"/>
<rect x="54" y="98" width="7" height="1" fill="rgb(231,187,135)"/>
<rect x="61" y="98" width="20" height="1" fill="rgb(189,87,38)"/>
<rect x="81" y="98" width="7" height="1" fill="rgb(231,187,135)"/>
<rect x="88" y="98" width="20" height="1" fill="rgb(189,87,38)"/>
<rect x="108" y="98" width="7" height="1" fill="rgb(231,187,135)"/>
<rect x="34" y="99" width="20" height="1" fill="rgb(189,87,38)"/>
<rect x="54" y="99" width="7" height="1" fill="rgb(231,187,135)"/>
<rect x="61" y="99" width="20" height="1" fill="rgb(189,87,38)"/>
<rect x="81" y="99" width="7" height="1" fill="rgb(231,187,135)"/>
<rect x="88" y="99" width="20" height="1" fill="rgb(189,87,38)"/>
<rect x="108" y="99" width="7" height="1" fill="rgb(231,187,135)"/>
<rect x="34" y="100" width="20" height="1" fill="rgb(189,87,38)"/>
<rect x="54" y="100" width="7" height="1" fill="rgb(231,187,135)"/>
<rect x="61" y="100" width="20" height="1" fill="rgb(189,87,38)"/>
<rect x="81" y="100" width="7" height="1" fill="rgb(231,187,135)"/>
<rect x="88" y="100" width="20" height="1" fill="rgb(189,87,38)"/>
<rect x="108" y="100" width="7" height="1" fill="rgb(231,187,135)"/>
<rect x="34" y="101" width="20" height="1" fill="rgb(189,87,38)"/>
<rect x="54" y="101" width="7" height="1" fill="rgb(231,187,135)"/>
<rect x="61" y="101" width="20" height="1" fill="rgb(189,87,38)"/>
<rect x="81" y="101" width="7" height="1" fill="rgb(231,187,135)"/>
<rect x="88" y="101" width="20" height="1" fill="rgb(189,87,38)"/>
<rect x="108" y="101" width="7" height="1" fill="rgb(231,187,135)"/>
<rect x="47" y="102" width="14" height="1" fill="rgb(189,87,38)"/>
<rect x="61" y="102" width="20" height="1" fill="rgb(231,187,135)"/>
<rect x="88" y="102" width="20" height="1" fill="rgb(189,87,38)"/>
<rect x="108" y="102" width="7" height="1" fill="rgb(231,187,135)"/>
<rect x="47" y="103" width="14" height="1" fill="rgb(189,87,38)"/>
<rect x="61" y="103" width="20" height="1" fill="rgb(231,187,135)"/>
<rect x="88" y="103" width="20" height="1" fill="rgb(189,87,38)"/>
<rect x="108" y="103" width="7" height="1" fill="rgb(231,187,135)"/>
<rect x="47" y="104" width="14" height="1" fill="rgb(189,87,38)"/>
<rect x="61" y="104" width="20" height="1" fill="rgb(231,187,135)"/>
<rect x="88" y="104" width="20" height="1" fill="rgb(189,87,38)"/>
<rect x="108" y="104" width="7" height="1" fill="rgb(231,187,135)"/>
<rect x="47" y="105" width="14" height="1" fill="rgb(189,87,38)"/>
<rect x="61" y="105" width="20" height="1" fill="rgb(231,187,135)"/>
<rect x="88" y="105" width="20" height="1" fill="rgb(189,87,38)"/>
<rect x="108" y="105" width="7" height="1" fill="rgb(231,187,135)"/>
<rect x="47" y="106" width="14" height="1" fill="rgb(189,87,38)"/>
<rect x="61" y="106" width="20" height="1" fill="rgb(231,187,135)"/>
<rect x="88" y="106" width="20" height="1" fill="rgb(189,87,38)"/>
<rect x="108" y="106" width="7" height="1" fill="rgb(231,187,135)"/>
<rect x="47" y="107" width="14" height="1" fill="rgb(189,87,38)"/>
<rect x="61" y="107" width="20" height="1" fill="rgb(231,187,135)"/>
<rect x="88" y="107" width="20" height="1" fill="rgb(189,87,38)"/>
<rect x="108" y="107" width="7" height="1" fill="rgb(231,187,135)"/>
<rect x="47" y="108" width="14" height="1" fill="rgb(189,87,38)"/>
<rect x="61" y="108" width="20" height="1" fill="rgb(231,187,135)"/>
<rect x="88" y="108" width="20" height="1" fill="rgb(189,87,38)"/>
<rect x="108" y="108" width="7" height="1" fill="rgb(231,187,135)"/>
<rect x="47" y="109" width="7" height="1" fill="rgb(189,87,38)"/>
<rect x="54" y="109" width="7" height="1" fill="rgb(231,187,135)"/>
<rect x="95" y="109" width="13" height="1" fill="rgb(189,87,38)"/>
<rect x="108" y="109" width="7" height="1" fill="rgb(231,187,135)"/>
<rect x="47" y="110" width="7" height="1" fill="rgb(189,87,38)"/>
<rect x="54" y="110" width="7" height="1" fill="rgb(231,187,135)"/>
<rect x="95" y="110" width="13" height="1" fill="rgb(189,87,38)"/>
<rect x="108" y="110" width="7" height="1" fill="rgb(231,187,135)"/>
<rect x="47" y="111" width="7" height="1" fill="rgb(189,87,38)"/>
<rect x="54" y="111" width="7" height="1" fill="rgb(231,187,135)"/>
<rect x="95" y="111" width="13" height="1" fill="rgb(189,87,38)"/>
<rect x="108" y="111" width="7" height="1" fill="rgb(231,187,135)"/>
<rect x="47" y="112" width="7" height="1" fill="rgb(189,87,38)"/>
<rect x="54" y="112" width="7" height="1" fill="rgb(231,187,135)"/>
<rect x="95" y="112" width="13" height="1" fill="rgb(189,87,38)"/>
<rect x="108" y="112" width="7" height="1" fill="rgb(231,187,135)"/>
<rect x="47" y="113" width="7" height="1" fill="rgb(189,87,38)"/>
<rect x="54" y="113" width="7" height="1" fill="rgb(231,187,135)"/>
<rect x="95" y="113" width="13" height="1" fill="rgb(189,87,38)"/>
<rect x="108" y="113" width="7" height="1" fill="rgb(231,187,135)"/>
<rect x="47" y="114" width="7" height="1" fill="rgb(189,87,38)"/>
<rect x="54" y="114" width="7" height="1" fill="rgb(231,187,135)"/>
<rect x="95" y="114" width="13" height="1" fill="rgb(189,87,38)"/>
<rect x="108" y="114" width="7" height="1" fill="rgb(231,187,135)"/>
<rect x="54" y="115" width="7" height="1" fill="rgb(231,187,135)"/>
<rect x="101" y="115" width="7" height="1" fill="rgb(189,87,38)"/>
<rect x="108" y="115" width="7" height="1" fill="rgb(231,187,135)"/>
<rect x="54" y="116" width="7" height="1" fill="rgb(231,187,135)"/>
<rect x="101" y="116" width="7" height="1" fill="rgb(189,87,38)"/>
<rect x="108" y="116" width="7" height="1" fill="rgb(231,187,135)"/>
<rect x="54" y="117" width="7" height="1" fill="rgb(231,187,135)"/>
<rect x="101" y="117" width="7" height="1" fill="rgb(189,87,38)"/>
<rect x="108" y="117" width="7" height="1" fill="rgb(231,187,135)"/>
<rect x="54" y="118" width="7" height="1" fill="rgb(231,187,135)"/>
<rect x="101" y="118" width="7" height="1" fill="rgb(189,87,38)"/>
<rect x="108" y="118" width="7" height="1" fill="rgb(231,187,135)"/>
<rect x="54" y="119" width="7" height="1" fill="rgb(231,187,135)"/>
<rect x="101" y="119" width="7" height="1" fill="rgb(189,87,38)"/>
<rect x="108" y="119" width="7" height="1" fill="rgb(231,187,135)"/>
<rect x="54" y="120" width="7" height="1" fill="rgb(231,187,135)"/>
<rect x="101" y="120" width="7" height="1" fill="rgb(189,87,38)"/>
<rect x="108" y="120" width="7" height="1" fill="rgb(231,187,135)"/>
<rect x="54" y="121" width="7" height="1" fill="rgb(231,187,135)"/>
<rect x="101" y="121" width="7" height="1" fill="rgb(189,87,38)"/>
<rect x="108" y="121" width="7" height="1" fill="rgb(231,187,135)"/>
<rect x="54" y="122" width="7" height="1" fill="rgb(189,87,38)"/>
<rect x="61" y="122" width="7" height="1" fill="rgb(231,187,135)"/>
<rect x="95" y="122" width="6" height="1" fill="rgb(189,87,38)"/>
<rect x="101" y="122" width="7" height="1" fill="rgb(231,187,135)"/>
<rect x="54" y="123" width="7" height="1" fill="rgb(189,87,38)"/>
<rect x="61" y="123" width="7" height="1" fill="rgb(231,187,135)"/>
<rect x="95" y="123" width="6" height="1" fill="rgb(189,87,38)"/>
<rect x="101" y="123" width="7" height="1" fill="rgb(231,187,135)"/>
<rect x="54" y="124" width="7" height="1" fill="rgb(189,87,38)"/>
<rect x="61" y="124" width="7" height="1" fill="rgb(231,187,135)"/>
<rect x="95" y="124" width="6" height="1" fill="rgb(189,87,38)"/>
<rect x="101" y="124" width="7" height="1" fill="rgb(231,187,135)"/>
<rect x="54" y="125" width="7" height="1" fill="rgb(189,87,38)"/>
<rect x="61" y="125" width="7" height="1" fill="rgb(231,187,135)"/>
<rect x="95" y="125" width="6" height="1" fill="rgb(189,87,38)"/>
<rect x="101" y="125" width="7" height="1" fill="rgb(231,187,135)"/>
<rect x="54" y="126" width="7" height="1" fill="rgb(189,87,38)"/>
<rect x="61" y="126" width="7" height="1" fill="rgb(231,187,135)"/>
<rect x="95" y="126" width="6" height="1" fill="rgb(189,87,38)"/>
<rect x="101" y="126" width="7" height="1" fill="rgb(231,187,135)"/>
<rect x="54" y="127" width="7" height="1" fill="rgb(189,87,38)"/>
<rect x="61" y="127" width="7" height="1" fill="rgb(231,187,135)"/>
<rect x="95" y="127" width="6" height="1" fill="rgb(189,87,38)"/>
<rect x="101" y="127" width="7" height="1" fill="rgb(231,187,135)"/>
<rect x="54" y="128" width="7" height="1" fill="rgb(189,87,38)"/>
<rect x="61" y="128" width="7" height="1" fill="rgb(231,187,135)"/>
<rect x="95" y="128" width="6" height="1" fill="rgb(189,87,38)"/>
<rect x="101" y="128" width="7" height="1" fill="rgb(231,187,135)"/>
<rect x="61" y="129" width="7" height="1" fill="rgb(189,87,38)"/>
<rect x="88" y="129" width="13" height="1" fill="rgb(189,87,38)"/>
<rect x="61" y="130" width="7" height="1" fill="rgb(189,87,38)"/>
<rect x="88" y="130" width="13" height="1" fill="rgb(189,87,38)"/>
<rect x="61" y="131" width="7" height="1" fill="rgb(189,87,38)"/>
<rect x="88" y="131" width="13" height="1" fill="rgb(189,87,38)"/>
<rect x="61" y="132" width="7" height="1" fill="rgb(189,87,38)"/>
<rect x="88" y="132" width="13" height="1" fill="rgb(189,87,38)"/>
<rect x="61" y="133" width="7" height="1" fill="rgb(189,87,38)"/>
<rect x="88" y="133" width="13" height="1" fill="rgb(189,87,38)"/>
<rect x="61" y="134" width="7" height="1" fill="rgb(189,87,38)"/>
<rect x="88" y="134" width="13" height="1" fill="rgb(189,87,38)"/>
<rect x="61" y="135" width="7" height="1" fill="rgb(189,87,38)"/>
<rect x="88" y="135" width="13" height="1" fill="rgb(189,87,38)"/>
<rect x="61" y="136" width="13" height="1" fill="rgb(189,87,38)"/>
<rect x="81" y="136" width="14" height="1" fill="rgb(189,87,38)"/>
<rect x="61" y="137" width="13" height="1" fill="rgb(189,87,38)"/>
<rect x="81" y="137" width="14" height="1" fill="rgb(189,87,38)"/>
<rect x="61" y="138" width="13" height="1" fill="rgb(189,87,38)"/>
<rect x="81" y="138" width="14" height="1" fill="rgb(189,87,38)"/>
<rect x="61" y="139" width="13" height="1" fill="rgb(189,87,38)"/>
<rect x="81" y="139" width="14" height="1" fill="rgb(189,87,38)"/>
<rect x="61" y="140" width="13" height="1" fill="rgb(189,87,38)"/>
<rect x="81" y="140" width="14" height="1" fill="rgb(189,87,38)"/>
<rect x="61" y="141" width="13" height="1" fill="rgb(189,87,38)"/>
<rect x="81" y="141" width="14" height="1" fill="rgb(189,87,38)"/>
<rect x="81" y="142" width="7" height="1" fill="rgb(189,87,38)"/>
<rect x="81" y="143" width="7" height="1" fill="rgb(189,87,38)"/>
<rect x="81" y="144" width="7" height="1" fill="rgb(189,87,38)"/>
<rect x="81" y="145" width="7" height="1" fill="rgb(189,87,38)"/>
<rect x="81" y="146" width="7" height="1" fill="rgb(189,87,38)"/>
<rect x="81" y="147" width="7" height="1" fill="rgb(189,87,38)"/>
<rect x="81" y="148" width="7" height="1" fill="rgb(189,87,38)"/>
<rect x="81" y="149" width="7" height="1" fill="rgb(189,87,38)"/>
</svg>
