<svg xmlns="http://www.w3.org/2000/svg" viewBox="0 0 149 143">
<rect x="27" y="0" width="7" height="1" fill="rgb(189,87,38)"/>
<rect x="27" y="1" width="7" height="1" fill="rgb(189,87,38)"/>
<rect x="27" y="2" width="7" height="1" fill="rgb(189,87,38)"/>
<rect x="27" y="3" width="7" height="1" fill="rgb(189,87,38)"/>
<rect x="27" y="4" width="7" height="1" fill="rgb(189,87,38)"/>
<rect x="27" y="5" width="7" height="1" fill="rgb(189,87,38)"/>
<rect x="27" y="6" width="7" height="1" fill="rgb(189,87,38)"/>
<rect x="27" y="7" width="7" height="1" fill="rgb(189,87,38)"/>
<rect x="27" y="8" width="7" height="1" fill="rgb(189,87,38)"/>
<rect x="27" y="9" width="7" height="1" fill="rgb(189,87,38)"/>
<rect x="27" y="10" width="7" height="1" fill="rgb(189,87,38)"/>
<rect x="27" y="11" width="7" height="1" fill="rgb(189,87,38)"/>
<rect x="27" y="12" width="7" height="1" fill="rgb(189,87,38)"/>
<rect x="27" y="13" width="7" height="1" fill="rgb(189,87,38)"/>
<rect x="13" y="14" width="27" height="1" fill="rgb(189,87,38)"/>
<rect x="13" y="15" width="27" height="1" fill="rgb(189,87,38)"/>
<rect x="13" y="16" width="27" height="1" fill="rgb(189,87,38)"/>
<rect x="13" y="17" width="27" height="1" fill="rgb(189,87,38)"/>
<rect x="13" y="18" width="27" height="1" fill="rgb(189,87,38)"/>
<rect x="13" y="19" width="27" height="1" fill="rgb(189,87,38)"/>
<rect x="13" y="20" width="27" height="1" fill="rgb(189,87,38)"/>
<rect x="34" y="21" width="6" height="1" fill="rgb(189,87,38)"/>
<rect x="34" y="22" width="6" height="1" fill="rgb(189,87,38)"/>
<rect x="34" y="23" width="6" height="1" fill="rgb(189,87,38)"/>
<rect x="34" y="24" width="6" height="1" fill="rgb(189,87,38)"/>
<rect x="34" y="25" width="6" height="1" fill="rgb(189,87,38)"/>
<rect x="34" y="26" width="6" height="1" fill="rgb(189,87,38)"/>
<rect x="34" y="27" width="6" height="1" fill="rgb(189,87,38)"/>
<rect x="34" y="28" width="6" height="1" fill="rgb(189,87,38)"/>
<rect x="34" y="29" width="6" height="1" fill="rgb(189,87,38)"/>
<rect x="34" y="30" width="6" height="1" fill="rgb(189,87,38)"/>
<rect x="34" y="31" width="6" height="1" fill="rgb(189,87,38)"/>
<rect x="34" y="32" width="6" height="1" fill="rgb(189,87,38)"/>
<rect x="34" y="33" width="6" height="1" fill="rgb(189,87,38)"/>
<rect x="13" y="34" width="48" height="1" fill="rgb(189,87,38)"/>
<rect x="13" y="35" width="48" height="1" fill="rgb(189,87,38)"/>
<rect x="13" y="36" width="48" height="1" fill="rgb(189,87,38)"/>
<rect x="13" y="37" width="48" height="1" fill="rgb(189,87,38)"/>
<rect x="13" y="38" width="48" height="1" fill="rgb(189,87,38)"/>
<rect x="13" y="39" width="48" height="1" fill="rgb(189,87,38)"/>
<rect x="13" y="40" width="48" height="1" fill="rgb(189,87,38)"/>
<rect x="0" y="41" width="47" height="1" fill="rgb(189,87,38)"/>
<rect x="0" y="42" width="47" height="1" fill="rgb(189,87,38)"/>
<rect x="0" y="43" width="47" height="1" fill="rgb(189,87,38)"/>
<rect x="0" y="44" width="47" height="1" fill="rgb(189,87,38)"/>
<rect x="0" y="45" width="47" height="1" fill="rgb(189,87,38)"/>
<rect x="0" y="46" width="47" height="1" fill="rgb(189,87,38)"/>
<rect x="0" y="47" width="47" height="1" fill="rgb(189,87,38)"/>
<rect x="0" y="48" width="40" height="1" fill="rgb(189,87,38)"/>
<rect x="0" y="49" width="40" height="1" fill="rgb(189,87,38)"/>
<rect x="0" y="50" width="40" height="1" fill="rgb(189,87,38)"/>
<rect x="0" y="51" width="40" height="1" fill="rgb(189,87,38)"/>
<rect x="0" y="52" width="40" height="1" fill="rgb(189,87,38)"/>
<rect x="0" y="53" width="40" height="1" fill="rgb(189,87,38)"/>
<rect x="0" y="54" width="40" height="1" fill="rgb(189,87,38)"/>
<rect x="27" y="55" width="13" height="1" fill="rgb(189,87,38)"/>
<rect x="27" y="56" width="13" height="1" fill="rgb(189,87,38)"/>
<rect x="27" y="57" width="13" height="1" fill="rgb(189,87,38)"/>
<rect x="27" y="58" width="13" height="1" fill="rgb(189,87,38)"/>
<rect x="27" y="59" width="13" height="1" fill="rgb(189,87,38)"/>
<rect x="27" y="60" width="13" height="1" fill="rgb(189,87,38)"/>
<rect x="27" y="61" width="20" height="1" fill="rgb(189,87,38)"/>
<rect x="27" y="62" width="20" height="1" fill="rgb(189,87,38)"/>
<rect x="27" y="63" width="20" height="1" fill="rgb(189,87,38)"/>
<rect x="27" y="64" width="20" height="1" fill="rgb(189,87,38)"/>
<rect x="27" y="65" width="20" height="1" fill="rgb(189,87,38)"/>
<rect x="27" y="66" width="20" height="1" fill="rgb(189,87,38)"/>
<rect x="27" y="67" width="20" height="1" fill="rgb(189,87,38)"/>
<rect x="27" y="68" width="7" height="1" fill="rgb(189,87,38)"/>
<rect x="34" y="68" width="6" height="1" fill="rgb(231,187,135)"/>
<rect x="40" y="68" width="21" height="1" fill="rgb(189,87,38)"/>
<rect x="88" y="68" width="27" height="1" fill="rgb(189,87,38)"/>
<rect x="27" y="69" width="7" height="1" fill="rgb(189,87,38)"/>
<rect x="34" y="69" width="6" height="1" fill="rgb(231,187,135)"/>
<rect x="40" y="69" width="21" height="1" fill="rgb(189,87,38)"/>
<rect x="88" y="69" width="27" height="1" fill="rgb(189,87,38)"/>
<rect x="27" y="70" width="7" height="1" fill="rgb(189,87,38)"/>
<rect x="34" y="70" width="6" height="1" fill="rgb(231,187,135)"/>
<rect x="40" y="70" width="21" height="1" fill="rgb(189,87,38)"/>
<rect x="88" y="70" width="27" height="1" fill="rgb(189,87,38)"/>
<rect x="27" y="71" width="7" height="1" fill="rgb(189,87,38)"/>
<rect x="34" y="71" width="6" height="1" fill="rgb(231,187,135)"/>
<rect x="40" y="71" width="21" height="1" fill="rgb(189,87,38)"/>
<rect x="88" y="71" width="27" height="1" fill="rgb(189,87,38)"/>
<rect x="27" y="72" width="7" height="1" fill="rgb(189,87,38)"/>
<rect x="34" y="72" width="6" height="1" fill="rgb(231,187,135)"/>
<rect x="40" y="72" width="21" height="1" fill="rgb(189,87,38)"/>
<rect x="88" y="72" width="27" height="1" fill="rgb(189,87,38)"/>
<rect x="27" y="73" width="7" height="1" fill="rgb(189,87,38)"/>
<rect x="34" y="73" width="6" height="1" fill="rgb(231,187,135)"/>
<rect x="40" y="73" width="21" height="1" fill="rgb(189,87,38)"/>
<rect x="88" y="73" width="27" height="1" fill="rgb(189,87,38)"/>
<rect x="27" y="74" width="7" height="1" fill="rgb(189,87,38)"/>
<rect x="34" y="74" width="6" height="1" fill="rgb(231,187,135)"/>
<rect x="40" y="74" width="21" height="1" fill="rgb(189,87,38)"/>
<rect x="88" y="74" width="27" height="1" fill="rgb(189,87,38)"/>
<rect x="27" y="75" width="61" height="1" fill="rgb(189,87,38)"/>
<rect x="88" y="75" width="6" height="1" fill="rgb(231,187,135)"/>
<rect x="94" y="75" width="34" height="1" fill="rgb(189,87,38)"/>
<rect x="27" y="76" width="61" height="1" fill="rgb(189,87,38)"/>
<rect x="88" y="76" width="6" height="1" fill="rgb(231,187,135)"/>
<rect x="94" y="76" width="34" height="1" fill="rgb(189,87,38)"/>
<rect x="27" y="77" width="61" height="1" fill="rgb(189,87,38)"/>
<rect x="88" y="77" width="6" height="1" fill="rgb(231,187,135)"/>
<rect x="94" y="77" width="34" height="1" fill="rgb(189,87,38)"/>
<rect x="27" y="78" width="61" height="1" fill="rgb(189,87,38)"/>
<rect x="88" y="78" width="6" height="1" fill="rgb(231,187,135)"/>
<rect x="94" y="78" width="34" height="1" fill="rgb(189,87,38)"/>
<rect x="27" y="79" width="61" height="1" fill="rgb(189,87,38)"/>
<rect x="88" y="79" width="6" height="1" fill="rgb(231,187,135)"/>
<rect x="94" y="79" width="34" height="1" fill="rgb(189,87,38)"/>
<rect x="27" y="80" width="61" height="1" fill="rgb(189,87,38)"/>
<rect x="88" y="80" width="6" height="1" fill="rgb(231,187,135)"/>
<rect x="94" y="80" width="34" height="1" fill="rgb(189,87,38)"/>
<rect x="27" y="81" width="61" height="1" fill="rgb(189,87,38)"/>
<rect x="88" y="81" width="6" height="1" fill="rgb(231,187,135)"/>
<rect x="94" y="81" width="34" height="1" fill="rgb(189,87,38)"/>
<rect x="34" y="82" width="6" height="1" fill="rgb(189,87,38)"/>
<rect x="40" y="82" width="7" height="1" fill="rgb(231,187,135)"/>
<rect x="47" y="82" width="20" height="1" fill="rgb(189,87,38)"/>
<rect x="67" y="82" width="7" height="1" fill="rgb(231,187,135)"/>
<rect x="74" y="82" width="27" height="1" fill="rgb(189,87,38)"/>
<rect x="101" y="82" width="7" height="1" fill="rgb(231,187,135)"/>
<rect x="108" y="82" width="27" height="1" fill="rgb(189,87,38)"/>
<rect x="34" y="83" width="6" height="1" fill="rgb(189,87,38)"/>
<rect x="40" y="83" width="7" height="1" fill="rgb(231,187,135)"/>
<rect x="47" y="83" width="20" height="1" fill="rgb(189,87,38)"/>
<rect x="67" y="83" width="7" height="1" fill="rgb(231,187,135)"/>
<rect x="74" y="83" width="27" height="1" fill="rgb(189,87,38)"/>
<rect x="101" y="83" width="7" height="1" fill="rgb(231,187,135)"/>
<rect x="108" y="83" width="27" height="1" fill="rgb(189,87,38)"/>
<rect x="34" y="84" width="6" height="1" fill="rgb(189,87,38)"/>
<rect x="40" y="84" width="7" height="1" fill="rgb(231,187,135)"/>
<rect x="47" y="84" width="20" height="1" fill="rgb(189,87,38)"/>
<rect x="67" y="84" width="7" height="1" fill="rgb(231,187,135)"/>
<rect x="74" y="84" width="27" height="1" fill="rgb(189,87,38)"/>
<rect x="101" y="84" width="7" height="1" fill="rgb(231,187,135)"/>
<rect x="108" y="84" width="27" height="1" fill="rgb(189,87,38)"/>
<rect x="34" y="85" width="6" height="1" fill="rgb(189,87,38)"/>
<rect x="40" y="85" width="7" height="1" fill="rgb(231,187,135)"/>
<rect x="47" y="85" width="20" height="1" fill="rgb(189,87,38)"/>
<rect x="67" y="85" width="7" height="1" fill="rgb(231,187,135)"/>
<rect x="74" y="85" width="27" height="1" fill="rgb(189,87,38)"/>
<rect x="101" y="85" width="7" height="1" fill="rgb(231,187,135)"/>
<rect x="108" y="85" width="27" height="1" fill="rgb(189,87,38)"/>
<rect x="34" y="86" width="6" height="1" fill="rgb(189,87,38)"/>
<rect x="40" y="86" width="7" height="1" fill="rgb(231,187,135)"/>
<rect x="47" y="86" width="20" height="1" fill="rgb(189,87,38)"/>
<rect x="67" y="86" width="7" height="1" fill="rgb(231,187,135)"/>
<rect x="74" y="86" width="27" height="1" fill="rgb(189,87,38)"/>
<rect x="101" y="86" width="7" height="1" fill="rgb(231,187,135)"/>
<rect x="108" y="86" width="27" height="1" fill="rgb(189,87,38)"/>
<rect x="34" y="87" width="6" height="1" fill="rgb(189,87,38)"/>
<rect x="40" y="87" width="7" height="1" fill="rgb(231,187,135)"/>
<rect x="47" y="87" width="20" height="1" fill="rgb(189,87,38)"/>
<rect x="67" y="87" width="7" height="1" fill="rgb(231,187,135)"/>
<rect x="74" y="87" width="27" height="1" fill="rgb(189,87,38)"/>
<rect x="101" y="87" width="7" height="1" fill="rgb(231,187,135)"/>
<rect x="108" y="87" width="27" height="1" fill="rgb(189,87,38)"/>
<rect x="34" y="88" width="87" height="1" fill="rgb(189,87,38)"/>
<rect x="128" y="88" width="14" height="1" fill="rgb(231,187,135)"/>
<rect x="34" y="89" width="87" height="1" fill="rgb(189,87,38)"/>
<rect x="128" y="89" width="14" height="1" fill="rgb(231,187,135)"/>
<rect x="34" y="90" width="87" height="1" fill="rgb(189,87,38)"/>
<rect x="128" y="90" width="14" height="1" fill="rgb(231,187,135)"/>
<rect x="34" y="91" width="87" height="1" fill="rgb(189,87,38)"/>
<rect x="128" y="91" width="14" height="1" fill="rgb(231,187,135)"/>
<rect x="34" y="92" width="87" height="1" fill="rgb(189,87,38)"/>
<rect x="128" y="92" width="14" height="1" fill="rgb(231,187,135)"/>
<rect x="34" y="93" width="87" height="1" fill="rgb(189,87,38)"/>
<rect x="128" y="93" width="14" height="1" fill="rgb(231,187,135)"/>
<rect x="34" y="94" width="87" height="1" fill="rgb(189,87,38)"/>
<rect x="128" y="94" width="14" height="1" fill="rgb(231,187,135)"/>
<rect x="34" y="95" width="20" height="1" fill="rgb(189,87,38)"/>
<rect x="54" y="95" width="7" height="1" fill="rgb(231,187,135)"/>
<rect x="61" y="95" width="20" height="1" fill="rgb(189,87,38)"/>
<rect x="81" y="95" width="7" height="1" fill="rgb(231,187,135)"/>
<rect x="88" y="95" width="20" height="1" fill="rgb(189,87,38)"/>
<rect x="108" y="95" width="7" height="1" fill="rgb(231,187,135)"/>
<rect x="142" y="95" width="7" height="1" fill="rgb(231,187,135)"/>
<rect x="34" y="96" width="20" height="1" fill="rgb(189,87,38)"/>
<rect x="54" y="96" width="7" height="1" fill="rgb(231,187,135)"/>
<rect x="61" y="96" width="20" height="1" fill="rgb(189,87,38)"/>
<rect x="81" y="96" width="7" height="1" fill="rgb(231,187,135)"/>
<rect x="88" y="96" width="20" height="1" fill="rgb(189,87,38)"/>
<rect x="108" y="96" width="7" height="1" fill="rgb(231,187,135)"/>
<rect x="142" y="96" width="7" height="1" fill="rgb(231,187,135)"/>
<rect x="34" y="97" width="20" height="1" fill="rgb(189,87,38)"/>
<rect x="54" y="97" width="7" height="1" fill="rgb(231,187,135)"/>
<rect x="61" y="97" width="20" height="1" fill="rgb(189,87,38)"/>
<rect x="81" y="97" width="7" height="1" fill="rgb(231,187,135)"/>
<rect x="88" y="97" width="20" height="1" fill="rgb(189,87,38)"/>
<rect x="108" y="97" width="7" height="1" fill="rgb(231,187,135)"/>
<rect x="142" y="97" width="7" height="1" fill="rgb(231,187,135)"/>
<rect x="34" y="98" width="20" height="1" fill="rgb(189,87,38)"/>
<rect x="54" y="98" width="7" height="1" fill="rgb(231,187,135)"/>
<rect x="61" y="98" width="20" height="1" fill="rgb(189,87,38)"/>
<rect x="81" y="98" width="7" height="1" fill="rgb(231,187,135)"/>
<rect x="88" y="98" width="20" height="1" fill="rgb(189,87,38)"/>
<rect x="108" y="98" width="7" height="1" fill="rgb(231,187,135)"/>
<rect x="142" y="98" width="7" height="1" fill="rgb(231,187,135)"/>
<rect x="34" y="99" width="20" height="1" fill="rgb(189,87,38)"/>
<rect x="54" y="99" width="7" height="1" fill="rgb(231,187,135)"/>
<rect x="61" y="99" width="20" height="1" fill="rgb(189,87,38)"/>
<rect x="81" y="99" width="7" height="1" fill="rgb(231,187,135)"/>
<rect x="88" y="99" width="20" height="1" fill="rgb(189,87,38)"/>
<rect x="108" y="99" width="7" height="1" fill="rgb(231,187,135)"/>
<rect x="142" y="99" width="7" height="1" fill="rgb(231,187,135)"/>
<rect x="34" y="100" width="20" height="1" fill="rgb(189,87,38)"/>
<rect x="54" y="100" width="7" height="1" fill="rgb(231,187,135)"/>
<rect x="61" y="100" width="20" height="1" fill="rgb(189,87,38)"/>
<rect x="81" y="100" width="7" height="1" fill="rgb(231,187,135)"/>
<rect x="88" y="100" width="20" height="1" fill="rgb(189,87,38)"/>
<rect x="108" y="100" width="7" height="1" fill="rgb(231,187,135)"/>
<rect x="142" y="100" width="7" height="1" fill="rgb(231,187,135)"/>
<rect x="34" y="101" width="20" height="1" fill="rgb(189,87,38)"/>
<rect x="54" y="101" width="7" height="1" fill="rgb(231,187,135)"/>
<rect x="61" y="101" width="20" height="1" fill="rgb(189,87,38)"/>
<rect x="81" y="101" width="7" height="1" fill="rgb(231,187,135)"/>
<rect x="88" y="101" width="20" height="1" fill="rgb(189,87,38)"/>
<rect x="108" y="101" width="7" height="1" fill="rgb(231,187,135)"/>
<rect x="142" y="101" width="7" height="1" fill="rgb(231,187,135)"/>
<rect x="40" y="102" width="21" height="1" fill="rgb(189,87,38)"/>
<rect x="61" y="102" width="20" height="1" fill="rgb(231,187,135)"/>
<rect x="88" y="102" width="13" height="1" fill="rgb(189,87,38)"/>
<rect x="101" y="102" width="7" height="1" fill="rgb(231,187,135)"/>
<rect x="40" y="103" width="21" height="1" fill="rgb(189,87,38)"/>
<rect x="61" y="103" width="20" height="1" fill="rgb(231,187,135)"/>
<rect x="88" y="103" width="13" height="1" fill="rgb(189,87,38)"/>
<rect x="101" y="103" width="7" height="1" fill="rgb(231,187,135)"/>
<rect x="40" y="104" width="21" height="1" fill="rgb(189,87,38)"/>
<rect x="61" y="104" width="20" height="1" fill="rgb(231,187,135)"/>
<rect x="88" y="104" width="13" height="1" fill="rgb(189,87,38)"/>
<rect x="101" y="104" width="7" height="1" fill="rgb(231,187,135)"/>
<rect x="40" y="105" width="21" height="1" fill="rgb(189,87,38)"/>
<rect x="61" y="105" width="20" height="1" fill="rgb(231,187,135)"/>
<rect x="88" y="105" width="13" height="1" fill="rgb(189,87,38)"/>
<rect x="101" y="105" width="7" height="1" fill="rgb(231,187,135)"/>
<rect x="40" y="106" width="21" height="1" fill="rgb(189,87,38)"/>
<rect x="61" y="106" width="20" height="1" fill="rgb(231,187,135)"/>
<rect x="88" y="106" width="13" height="1" fill="rgb(189,87,38)"/>
<rect x="101" y="106" width="7" height="1" fill="rgb(231,187,135)"/>
<rect x="40" y="107" width="21" height="1" fill="rgb(189,87,38)"/>
<rect x="61" y="107" width="20" height="1" fill="rgb(231,187,135)"/>
<rect x="88" y="107" width="13" height="1" fill="rgb(189,87,38)"/>
<rect x="101" y="107" width="7" height="1" fill="rgb(231,187,135)"/>
<rect x="40" y="108" width="21" height="1" fill="rgb(189,87,38)"/>
<rect x="61" y="108" width="20" height="1" fill="rgb(231,187,135)"/>
<rect x="88" y="108" width="13" height="1" fill="rgb(189,87,38)"/>
<rect x="101" y="108" width="7" height="1" fill="rgb(231,187,135)"/>
<rect x="34" y="109" width="6" height="1" fill="rgb(189,87,38)"/>
<rect x="40" y="109" width="14" height="1" fill="rgb(231,187,135)"/>
<rect x="88" y="109" width="13" height="1" fill="rgb(189,87,38)"/>
<rect x="101" y="109" width="7" height="1" fill="rgb(231,187,135)"/>
<rect x="34" y="110" width="6" height="1" fill="rgb(189,87,38)"/>
<rect x="40" y="110" width="14" height="1" fill="rgb(231,187,135)"/>
<rect x="88" y="110" width="13" height="1" fill="rgb(189,87,38)"/>
<rect x="101" y="110" width="7" height="1" fill="rgb(231,187,135)"/>
<rect x="34" y="111" width="6" height="1" fill="rgb(189,87,38)"/>
<rect x="40" y="111" width="14" height="1" fill="rgb(231,187,135)"/>
<rect x="88" y="111" width="13" height="1" fill="rgb(189,87,38)"/>
<rect x="101" y="111" width="7" height="1" fill="rgb(231,187,135)"/>
<rect x="34" y="112" width="6" height="1" fill="rgb(189,87,38)"/>
<rect x="40" y="112" width="14" height="1" fill="rgb(231,187,135)"/>
<rect x="88" y="112" width="13" height="1" fill="rgb(189,87,38)"/>
<rect x="101" y="112" width="7" height="1" fill="rgb(231,187,135)"/>
<rect x="34" y="113" width="6" height="1" fill="rgb(189,87,38)"/>
<rect x="40" y="113" width="14" height="1" fill="rgb(231,187,135)"/>
<rect x="88" y="113" width="13" height="1" fill="rgb(189,87,38)"/>
<rect x="101" y="113" width="7" height="1" fill="rgb(231,187,135)"/>
<rect x="34" y="114" width="6" height="1" fill="rgb(189,87,38)"/>
<rect x="40" y="114" width="14" height="1" fill="rgb(231,187,135)"/>
<rect x="88" y="114" width="13" height="1" fill="rgb(189,87,38)"/>
<rect x="101" y="114" width="7" height="1" fill="rgb(231,187,135)"/>
<rect x="27" y="115" width="7" height="1" fill="rgb(189,87,38)"/>
<rect x="34" y="115" width="6" height="1" fill="rgb(231,187,135)"/>
<rect x="94" y="115" width="7" height="1" fill="rgb(189,87,38)"/>
<rect x="101" y="115" width="7" height="1" fill="rgb(231,187,135)"/>
<rect x="27" y="116" width="7" height="1" fill="rgb(189,87,38)"/>
<rect x="34" y="116" width="6" height="1" fill="rgb(231,187,135)"/>
<rect x="94" y="116" width="7" height="1" fill="rgb(189,87,38)"/>
<rect x="101" y="116" width="7" height="1" fill="rgb(231,187,135)"/>
<rect x="27" y="117" width="7" height="1" fill="rgb(189,87,38)"/>
<rect x="34" y="117" width="6" height="1" fill="rgb(231,187,135)"/>
<rect x="94" y="117" width="7" height="1" fill="rgb(189,87,38)"/>
<rect x="101" y="117" width="7" height="1" fill="rgb(231,187,135)"/>
<rect x="27" y="118" width="7" height="1" fill="rgb(189,87,38)"/>
<rect x="34" y="118" width="6" height="1" fill="rgb(231,187,135)"/>
<rect x="94" y="118" width="7" height="1" fill="rgb(189,87,38)"/>
<rect x="101" y="118" width="7" height="1" fill="rgb(231,187,135)"/>
<rect x="27" y="119" width="7" height="1" fill="rgb(189,87,38)"/>
<rect x="34" y="119" width="6" height="1" fill="rgb(231,187,135)"/>
<rect x="94" y="119" width="7" height="1" fill="rgb(189,87,38)"/>
<rect x="101" y="119" width="7" height="1" fill="rgb(231,187,135)"/>
<rect x="27" y="120" width="7" height="1" fill="rgb(189,87,38)"/>
<rect x="34" y="120" width="6" height="1" fill="rgb(231,187,135)"/>
<rect x="94" y="120" width="7" height="1" fill="rgb(189,87,38)"/>
<rect x="101" y="120" width="7" height="1" fill="rgb(231,187,135)"/>
<rect x="27" y="121" width="7" height="1" fill="rgb(189,87,38)"/>
<rect x="34" y="121" width="6" height="1" fill="rgb(231,187,135)"/>
<rect x="94" y="121" width="7" height="1" fill="rgb(189,87,38)"/>
<rect x="101" y="121" width="7" height="1" fill="rgb(231,187,135)"/>
<rect x="27" y="122" width="7" height="1" fill="rgb(189,87,38)"/>
<rect x="101" y="122" width="7" height="1" fill="rgb(189,87,38)"/>
<rect x="108" y="122" width="13" height="1" fill="rgb(231,187,135)"/>
<rect x="27" y="123" width="7" height="1" fill="rgb(189,87,38)"/>
<rect x="101" y="123" width="7" height="1" fill="rgb(189,87,38)"/>
<rect x="108" y="123" width="13" height="1" fill="rgb(231,187,135)"/>
<rect x="27" y="124" width="7" height="1" fill="rgb(189,87,38)"/>
<rect x="101" y="124" width="7" height="1" fill="rgb(189,87,38)"/>
<rect x="108" y="124" width="13" height="1" fill="rgb(231,187,135)"/>
<rect x="27" y="125" width="7" height="1" fill="rgb(189,87,38)"/>
<rect x="101" y="125" width="7" height="1" fill="rgb(189,87,38)"/>
<rect x="108" y="125" width="13" height="1" fill="rgb(231,187,135)"/>
<rect x="27" y="126" width="7" height="1" fill="rgb(189,87,38)"/>
<rect x="101" y="126" width="7" height="1" fill="rgb(189,87,38)"/>
<rect x="108" y="126" width="13" height="1" fill="rgb(231,187,135)"/>
<rect x="27" y="127" width="7" height="1" fill="rgb(189,87,38)"/>
<rect x="101" y="127" width="7" height="1" fill="rgb(189,87,38)"/>
<rect x="108" y="127" width="13" height="1" fill="rgb(231,187,135)"/>
<rect x="27" y="128" width="7" height="1" fill="rgb(189,87,38)"/>
<rect x="101" y="128" width="7" height="1" fill="rgb(189,87,38)"/>
<rect x="108" y="128" width="13" height="1" fill="rgb(231,187,135)"/>
<rect x="20" y="129" width="7" height="1" fill="rgb(189,87,38)"/>
<rect x="115" y="129" width="13" height="1" fill="rgb(189,87,38)"/>
<rect x="20" y="130" width="7" height="1" fill="rgb(189,87,38)"/>
<rect x="115" y="130" width="13" height="1" fill="rgb(189,87,38)"/>
<rect x="20" y="131" width="7" height="1" fill="rgb(189,87,38)"/>
<rect x="115" y="131" width="13" height="1" fill="rgb(189,87,38)"/>
<rect x="20" y="132" width="7" height="1" fill="rgb(189,87,38)"/>
<rect x="115" y="132" width="13" height="1" fill="rgb(189,87,38)"/>
<rect x="20" y="133" width="7" height="1" fill="rgb(189,87,38)"/>
<rect x="115" y="133" width="13" height="1" fill="rgb(189,87,38)"/>
<rect x="20" y="134" width="7" height="1" fill="rgb(189,87,38)"/>
<rect x="115" y="134" width="13" height="1" fill="rgb(189,87,38)"/>
<rect x="20" y="135" width="7" height="1" fill="rgb(189,87,38)"/>
<rect x="115" y="135" width="13" height="1" fill="rgb(189,87,38)"/>
<rect x="20" y="136" width="7" height="1" fill="rgb(189,87,38)"/>
<rect x="128" y="136" width="14" height="1" fill="rgb(189,87,38)"/>
<rect x="20" y="137" width="7" height="1" fill="rgb(189,87,38)"/>
<rect x="128" y="137" width="14" height="1" fill="rgb(189,87,38)"/>
<rect x="20" y="138" width="7" height="1" fill="rgb(189,87,38)"/>
<rect x="128" y="138" width="14" height="1" fill="rgb(189,87,38)"/>
<rect x="20" y="139" width="7" height="1" fill="rgb(189,87,38)"/>
<rect x="128" y="139" width="14" height="1" fill="rgb(189,87,38)"/>
<rect x="20" y="140" width="7" height="1" fill="rgb(189,87,38)"/>
<rect x="128" y="140" width="14" height="1" fill="rgb(189,87,38)"/>
<rect x="20" y="141" width="7" height="1" fill="rgb(189,87,38)"/>
<rect x="128" y="141" width="14" height="1" fill="rgb(189,87,38)"/>
<rect x="20" y="142" width="7" height="1" fill="rgb(189,87,38)"/>
<rect x="128" y="142" width="14" height="1" fill="rgb(189,87,38)"/>
</svg>
